<svg xmlns="http://www.w3.org/2000/svg" viewBox="0 0 312.44 335.38"><defs><style>.cls-1{fill:#123e66;}.cls-2{fill:#277fb5;}</style></defs><title>Asset 5</title><g id="Layer_2" data-name="Layer 2"><g id="Layer_1-2" data-name="Layer 1"><path class="cls-1" d="M0,69.61v260a5.77,5.77,0,0,0,9.35,4.54L90.2,270.3a5.78,5.78,0,0,0,2.2-4.53V5.79A5.78,5.78,0,0,0,83,1.25L2.2,65.08A5.78,5.78,0,0,0,0,69.61Z"/><path class="cls-1" d="M220,69.61v260a5.78,5.78,0,0,0,9.36,4.54l80.84-63.83a5.78,5.78,0,0,0,2.2-4.53V5.79a5.77,5.77,0,0,0-9.35-4.54L222.24,65.08A5.78,5.78,0,0,0,220,69.61Z"/><path class="cls-2" d="M202.42,69.61v260a5.77,5.77,0,0,1-9.35,4.54L112.22,270.3a5.78,5.78,0,0,1-2.2-4.53V5.79a5.77,5.77,0,0,1,9.35-4.54l80.85,63.83A5.78,5.78,0,0,1,202.42,69.61Z"/></g></g></svg>